<svg width="40" height="40" viewBox="0 0 24 24" fill="currentColor"
	xmlns="http://www.w3.org/2000/svg">
	<path fill-rule="evenodd" clip-rule="evenodd" fill="currentColor"
		d="M7.28642 12.7117C7.67538 13.0994 8.30358 13.0994 8.69254 12.7117C8.88133 12.5239 8.98753 12.2683 8.98753 12.0017C8.98753 11.735 8.88133 11.4794 8.69254 11.2917L6.39887 9.00167L20.0052 9.00247C20.556 9.00247 21.0024 8.55475 21.0024 8.00247C21.0024 7.45018 20.556 7.00247 20.0052 7.00247L6.40884 7.00167L8.70251 4.71167C8.95547 4.45801 9.05427 4.0883 8.96168 3.7418C8.86909 3.39529 8.59918 3.12464 8.25363 3.0318C7.90808 2.93895 7.53938 3.03801 7.28642 3.29167L3.29743 7.29167C3.10863 7.47944 3.00244 7.73504 3.00244 8.00167C3.00244 8.26831 3.10863 8.52391 3.29743 8.71167L7.28642 12.7117ZM15.7513 20.9682C16.0968 21.0611 16.4655 20.962 16.7185 20.7084L20.7075 16.7084C20.8962 16.5206 21.0024 16.265 21.0024 15.9984C21.0024 15.7317 20.8962 15.4761 20.7075 15.2884L16.7185 11.2884C16.3295 10.9006 15.7013 10.9006 15.3123 11.2884C15.1235 11.4761 15.0174 11.7317 15.0174 11.9984C15.0174 12.265 15.1235 12.5206 15.3123 12.7084L17.606 14.9984L3.99969 15.0025C3.44892 15.0025 3.00244 15.4502 3.00244 16.0025C3.00244 16.5548 3.44892 17.0025 3.99969 17.0025L17.596 16.9984L15.3024 19.2884C15.0494 19.542 14.9506 19.9117 15.0432 20.2582C15.1358 20.6047 15.4057 20.8754 15.7513 20.9682Z"></path>
</svg>
