<svg width="32" height="32" viewBox="0 0 32 32" fill="none" xmlns="http://www.w3.org/2000/svg">
   <g id="c/ic_card_credit">
      <path id="color&#240;&#159;&#142;&#168;" fill-rule="evenodd" clip-rule="evenodd"
         d="M28.0001 5.3335C28.7365 5.3335 29.3334 5.93045 29.3334 6.66683V25.3335C29.3334 26.0699 28.7365 26.6668 28.0001 26.6668H4.00008C3.2637 26.6668 2.66675 26.0699 2.66675 25.3335V6.66683C2.66675 5.93045 3.2637 5.3335 4.00008 5.3335H28.0001ZM26.6667 14.6668H5.33341V24.0002H26.6667V14.6668ZM10.6667 20.0002C11.4031 20.0002 12.0001 20.5971 12.0001 21.3335C12.0001 22.0699 11.4031 22.6668 10.6667 22.6668H8.00008C7.2637 22.6668 6.66675 22.0699 6.66675 21.3335C6.66675 20.5971 7.2637 20.0002 8.00008 20.0002H10.6667ZM26.6667 8.00016H5.33341V12.0002H26.6667V8.00016Z"
         fill="#0A47F0" />
   </g>
</svg>
