<svg width="32" height="32" viewBox="0 0 32 32" fill="none" xmlns="http://www.w3.org/2000/svg">
   <g id="m/ic_money_soles_exchange">
      <path id="color&#240;&#159;&#142;&#168;" fill-rule="evenodd" clip-rule="evenodd"
         d="M22.6499 12.7091C22.758 12.1236 22.3575 11.546 21.7001 11.3791C20.992 11.1993 20.254 11.5637 20.0517 12.193L17.3851 20.4888L17.351 20.6239C17.2429 21.2095 17.6433 21.787 18.3008 21.9539C19.0089 22.1337 19.7468 21.7693 19.9491 21.14L22.6158 12.8442L22.6499 12.7091ZM14.937 11.5745C15.909 11.8779 16.7132 12.5435 17.068 13.4331C17.3139 14.0496 16.9505 14.7265 16.2564 14.9449C15.5623 15.1633 14.8003 14.8405 14.5544 14.224C14.4809 14.0397 14.2929 13.8841 14.0544 13.8096C13.2555 13.5612 12.3661 13.764 12.0696 14.2696C11.962 14.4535 11.9855 14.7072 12.0952 14.826C12.1947 14.9337 12.3476 15.0293 12.617 15.1446L13.1556 15.3536L13.3957 15.4392L14.5554 15.8112C15.1788 16.0207 15.5657 16.1909 16.0214 16.4672C18.4042 17.9069 17.455 21.4374 14.2277 21.9333C12.737 22.1616 11.4739 21.7876 10.5124 21.0353C10.0568 20.6788 9.75859 20.3165 9.5895 20.0325C9.2452 19.4543 9.49378 18.7377 10.1447 18.4319C10.7492 18.1479 11.488 18.318 11.8661 18.8067L11.9467 18.925C11.9765 18.975 12.0904 19.1134 12.275 19.2579C12.6612 19.56 13.1278 19.6982 13.7738 19.5992C14.6734 19.461 14.8916 18.6493 14.5197 18.4246C14.2604 18.2673 14.009 18.1586 13.5375 18.0021L12.5938 17.7018L12.2705 17.5915L11.7993 17.4155L11.719 17.3844C10.9871 17.0984 10.4761 16.8072 10.0335 16.3284C9.23188 15.4598 9.11401 14.1846 9.70399 13.1763C10.6886 11.4973 12.9965 10.971 14.937 11.5745ZM3.99984 14.6665C4.73622 14.6665 5.33317 15.2635 5.33317 15.9998C5.33317 21.8909 10.1088 26.6665 15.9998 26.6665C19.3024 26.6665 22.3366 25.1531 24.3268 22.6685L24.0001 22.6665C23.3163 22.6665 22.7528 22.1518 22.6757 21.4887L22.6668 21.3332C22.6668 20.6494 23.1815 20.0858 23.8446 20.0088L24.0001 19.9998H28.0001C28.6839 19.9998 29.2474 20.5146 29.3245 21.1777L29.3334 21.3332V25.3332C29.3334 26.0695 28.7365 26.6665 28.0001 26.6665C27.3163 26.6665 26.7528 26.1518 26.6757 25.4887L26.6668 25.3332L26.6672 24.0014C24.189 27.3042 20.2735 29.3332 15.9998 29.3332C8.63604 29.3332 2.6665 23.3636 2.6665 15.9998C2.6665 15.2635 3.26346 14.6665 3.99984 14.6665ZM16 2.6665C23.3638 2.6665 29.3334 8.63604 29.3334 15.9998C29.3334 16.7362 28.7364 17.3332 28 17.3332C27.2637 17.3332 26.6667 16.7362 26.6667 15.9998C26.6667 10.1088 21.8911 5.33317 16 5.33317C12.6968 5.33317 9.66223 6.84715 7.67202 9.33247L8.00004 9.33317C8.68382 9.33317 9.24738 9.84789 9.3244 10.511L9.33337 10.6665C9.33337 11.3503 8.81865 11.9138 8.15553 11.9909L8.00004 11.9998H4.00004C3.31625 11.9998 2.75269 11.4851 2.67567 10.822L2.6667 10.6665V6.6665C2.6667 5.93012 3.26366 5.33317 4.00004 5.33317C4.68382 5.33317 5.24738 5.84789 5.3244 6.51101L5.33337 6.6665L5.33361 7.99692C7.81188 4.69492 11.7269 2.6665 16 2.6665Z"
         fill="#0A47F0" />
   </g>
</svg>
