<svg width="24" height="24" viewBox="0 0 24 24" fill="none" xmlns="http://www.w3.org/2000/svg">
   <path fill-rule="evenodd" clip-rule="evenodd"
      d="M2 5C2 3.39341 3.21706 2.0957 4.82031 2.00506L5 2H17.995L18.2395 2.0717C18.7063 2.2139 18.7861 2.29367 18.9283 2.76045L19 3.005V6H21C21.5523 6 22 6.44772 22 7V21C22 21.5523 21.5523 22 21 22H3C2.44772 22 2 21.5523 2 21V5ZM20 8H4V20H20V17H14C12.3431 17 11 15.6569 11 14C11 12.3431 12.3431 11 14 11H20V8ZM14 13C13.4477 13 13 13.4477 13 14C13 14.5523 13.4477 15 14 15C14.5523 15 15 14.5523 15 14C15 13.4477 14.5523 13 14 13ZM17 4H5C4.4633 4 4.06108 4.37084 4.00636 4.88012L4 5V6H17V4Z"
      fill="#002A8D" />
</svg>
