<?xml version="1.0" encoding="UTF-8" standalone="no"?>
<svg xmlns:xlink="http://www.w3.org/1999/xlink" height="21.5px" width="21.5px" xmlns="http://www.w3.org/2000/svg">
  <g transform="matrix(1.0, 0.0, 0.0, 1.0, 10.75, 10.75)">
    <use height="21.5" transform="matrix(1.0, 0.0, 0.0, 1.0, -10.75, -10.75)" width="21.5" xlink:href="#shape0"/>
  </g>
  <defs>
    <g id="shape0" transform="matrix(1.0, 0.0, 0.0, 1.0, 10.75, 10.75)">
      <path d="M4.55 -4.6 Q5.0 -4.2 3.95 -2.55 L2.6 0.0 Q2.6 1.05 1.8 1.75 1.1 2.5 0.1 2.5 L-2.4 3.8 Q-4.0 4.8 -4.45 4.4 -4.85 3.95 -3.85 2.35 L-2.4 -0.1 Q-2.35 -1.05 -1.7 -1.8 -0.95 -2.5 0.1 -2.5 L2.5 -4.0 Q4.15 -5.05 4.55 -4.6 M1.3 0.0 L0.95 -0.85 0.15 -1.15 -0.7 -0.85 -1.0 0.0 -0.7 0.8 0.15 1.15 Q0.65 1.15 0.95 0.8 1.3 0.5 1.3 0.0 M7.6 7.6 Q4.45 10.75 0.0 10.75 -4.45 10.75 -7.6 7.6 -10.75 4.45 -10.75 0.0 -10.75 -4.45 -7.6 -7.6 -4.45 -10.75 0.0 -10.75 4.45 -10.75 7.6 -7.6 10.75 -4.45 10.75 0.0 10.75 4.45 7.6 7.6 M8.75 0.0 Q8.75 -3.65 6.2 -6.2 3.65 -8.75 0.0 -8.75 -3.65 -8.75 -6.2 -6.2 -8.75 -3.65 -8.75 0.0 -8.75 3.65 -6.2 6.2 -3.65 8.75 0.0 8.75 3.65 8.75 6.2 6.2 8.75 3.65 8.75 0.0" fill="#898e8f" fill-rule="evenodd" stroke="none"/>
    </g>
  </defs>
</svg>
