<svg width="32" height="32" viewBox="0 0 32 32" fill="none" xmlns="http://www.w3.org/2000/svg">
   <g id="m/ic_money_bag_soles">
      <path id="color&#240;&#159;&#142;&#168;" fill-rule="evenodd" clip-rule="evenodd"
         d="M21.3326 2.6665C22.069 2.6665 22.6659 3.26346 22.6659 3.99984C22.6659 4.2415 22.6003 4.47861 22.4759 4.68583L20.3203 8.27701L20.6231 8.53874L20.9722 8.86093C22.6797 10.4878 25.4404 13.847 27.1969 19.1453C28.3482 22.62 28.259 25.54 26.9466 27.3653C26.0163 28.652 24.5123 29.3333 22.5957 29.3333H9.36708C7.53299 29.3333 6.05826 28.6346 5.10661 27.3133C3.76099 25.4426 3.63721 22.5413 4.76455 19.1453C6.78105 13.0616 10.1094 9.53574 11.6659 8.25167L9.5226 4.68683C9.14319 4.05572 9.34723 3.23653 9.97834 2.85711C10.1858 2.7324 10.4233 2.6665 10.6653 2.6665H21.3326ZM19.0218 10.6665H12.9322C10.9705 12.4185 8.70757 15.7115 7.2905 19.9868C6.40879 22.6429 6.49458 24.6815 7.26535 25.753C7.69744 26.353 8.35914 26.6666 9.36708 26.6666H22.5957C23.6983 26.6666 24.3884 26.3553 24.7887 25.8039C25.5158 24.7888 25.5777 22.7236 24.6706 19.9858C23.2556 15.7177 20.9955 12.4337 19.0218 10.6665ZM20.9143 15.3861C21.2561 15.5228 21.4224 15.9108 21.2857 16.2527L18.619 22.9193C18.4822 23.2612 18.0943 23.4275 17.7524 23.2907C17.4106 23.154 17.2443 22.766 17.381 22.4242L20.0477 15.7575C20.1844 15.4156 20.5724 15.2494 20.9143 15.3861ZM14.4161 15.5078L14.7722 15.6313C15.0337 15.7271 15.238 15.8177 15.6204 16.0002C15.9527 16.1587 16.0936 16.5567 15.935 16.889C15.7764 17.2213 15.3785 17.3621 15.0462 17.2035L14.7 17.0417L14.4353 16.9294L14.1618 16.8294C14.1105 16.8117 14.0551 16.793 13.9936 16.7724C13.2441 16.5225 12.388 16.7318 12.0833 17.2889C11.9525 17.5287 11.9795 17.8426 12.1367 18.0252C12.2393 18.1442 12.3796 18.2412 12.601 18.3462L12.8926 18.4721L13.2488 18.6116L14.1597 18.9257C14.5796 19.0789 14.8439 19.2053 15.1493 19.4039C16.6825 20.3971 15.971 22.9442 13.9096 23.3016C13.0573 23.3987 12.2886 23.2845 11.6251 23.0324C11.3151 22.9146 11.0889 22.7915 10.9531 22.6972C10.6507 22.4872 10.5757 22.0717 10.7857 21.7693C10.9724 21.5005 11.3214 21.4114 11.609 21.5424L11.8129 21.6599L11.9858 21.7407C12.0205 21.7554 12.0582 21.7706 12.0987 21.786C12.5719 21.9658 13.1289 22.0486 13.7199 21.9824C14.6048 21.8284 14.8859 20.8219 14.4235 20.5223C14.1762 20.3615 13.9459 20.26 13.4756 20.0981L12.7843 19.8615L12.2676 19.6567C11.7628 19.4451 11.4196 19.2355 11.1265 18.8954C10.6 18.2838 10.5211 17.3682 10.9132 16.6496C11.5695 15.4497 13.1114 15.0727 14.4161 15.5078ZM18.9777 5.33317H13.0226L14.5254 7.83282L14.6528 7.99984H17.3498L17.4785 7.83177L18.9777 5.33317Z"
         fill="#0A47F0" />
   </g>
</svg>
