<svg width="32" height="32" viewBox="0 0 32 32" fill="none" xmlns="http://www.w3.org/2000/svg">
   <path fill-rule="evenodd" clip-rule="evenodd"
      d="M14.5413 27.3901L5.06264 17.8168C2.78264 15.5155 2.04264 12.0648 3.22131 9.23015C4.34397 6.53015 6.54131 4.67815 9.24931 4.14881C11.6693 3.68081 14.1466 4.34348 16 5.93815C17.8546 4.34215 20.3346 3.67681 22.7506 4.14881C25.4573 4.67815 27.6546 6.53015 28.7786 9.23015C29.9573 12.0648 29.2173 15.5155 26.9386 17.8168L17.4586 27.3901C17.0706 27.7821 16.552 27.9995 16 27.9995C15.448 27.9995 14.9293 27.7821 14.5413 27.3901ZM25.0437 15.9405C26.5791 14.3899 27.0747 12.0777 26.3168 10.255C25.5298 8.36462 24.0544 7.12097 22.2393 6.766C20.6326 6.45211 18.9804 6.89147 17.7394 7.95944L16.0001 9.45615L14.2607 7.95954C13.0217 6.89342 11.3705 6.45468 9.76088 6.76595C7.94427 7.12104 6.46933 8.36431 5.6836 10.254C4.92524 12.0778 5.42098 14.3896 6.95761 15.9406L16 25.0733L25.0437 15.9405Z"
      fill="#fff"></path>
</svg>
