<?xml version="1.0" encoding="UTF-8" standalone="no"?>
<svg xmlns:xlink="http://www.w3.org/1999/xlink" height="62.5px" width="62.5px" xmlns="http://www.w3.org/2000/svg">
  <g transform="matrix(1.0, 0.0, 0.0, 1.0, 31.25, 31.25)">
    <use height="62.5" transform="matrix(1.0, 0.0, 0.0, 1.0, -31.25, -31.25)" width="62.5" xlink:href="#shape0"/>
  </g>
  <defs>
    <g id="shape0" transform="matrix(1.0, 0.0, 0.0, 1.0, 31.25, 31.25)">
      <path d="M-31.25 -31.25 L31.25 -31.25 31.25 31.25 -31.25 31.25 -31.25 -31.25" fill="#ffffff" fill-opacity="0.0" fill-rule="evenodd" stroke="none"/>
      <path d="M0.05 -19.8 Q12.9 -19.8 22.1 -10.75 27.1 -5.7 29.35 -0.05 27.35 5.0 23.2 9.5 L-5.6 -19.3 0.05 -19.8 M-22.0 -10.75 Q-20.05 -12.7 -17.9 -14.25 L-29.1 -25.45 Q-29.85 -26.2 -29.85 -27.25 -29.85 -28.3 -29.1 -29.0 -28.4 -29.75 -27.35 -29.75 -26.3 -29.75 -25.55 -29.0 L28.9 25.45 Q29.6 26.15 29.6 27.2 29.6 28.25 28.9 29.0 28.15 29.7 27.1 29.7 26.05 29.7 25.35 29.0 L13.3 16.95 Q7.2 19.8 -0.05 19.8 -12.95 19.8 -22.05 10.7 -27.05 5.7 -29.35 0.1 -27.05 -5.65 -22.0 -10.75 M0.1 9.3 Q2.55 9.3 4.55 8.2 L-8.05 -4.4 Q-9.15 -2.4 -9.15 0.05 -9.15 3.9 -6.45 6.6 -3.75 9.3 0.1 9.3" fill="#434d56" fill-rule="evenodd" stroke="none"/>
    </g>
  </defs>
</svg>
