<?xml version="1.0" encoding="UTF-8" standalone="no"?>
<svg xmlns:xlink="http://www.w3.org/1999/xlink" height="17.35px" width="17.35px" xmlns="http://www.w3.org/2000/svg">
  <g transform="matrix(1.0, 0.0, 0.0, 1.0, 8.65, 8.65)">
    <use height="17.35" transform="matrix(1.0, 0.0, 0.0, 1.0, -8.65, -8.65)" width="17.35" xlink:href="#shape0"/>
  </g>
  <defs>
    <g id="shape0" transform="matrix(1.0, 0.0, 0.0, 1.0, 8.65, 8.65)">
      <path d="M-2.95 7.05 Q-2.7 7.35 -2.7 7.75 -2.7 8.15 -3.0 8.45 L-3.75 8.7 -4.4 8.4 -8.0 4.45 -8.3 3.8 -8.3 3.7 -8.0 3.1 -4.4 -0.85 Q-4.15 -1.2 -3.75 -1.2 L-3.0 -0.9 Q-2.7 -0.65 -2.7 -0.25 L-2.95 0.5 -5.05 2.75 7.3 2.75 Q7.7 2.75 8.0 3.05 L8.3 3.75 8.0 4.45 7.3 4.75 -5.05 4.75 -2.95 7.05 M8.05 -4.35 L8.3 -3.75 8.3 -3.65 8.05 -3.0 4.45 0.95 Q4.15 1.25 3.75 1.25 L3.05 1.0 Q2.7 0.7 2.7 0.3 2.7 -0.1 3.0 -0.4 L5.05 -2.7 -7.3 -2.7 Q-7.7 -2.7 -8.0 -3.0 L-8.3 -3.7 -8.0 -4.4 -7.3 -4.7 5.05 -4.7 3.0 -6.95 Q2.7 -7.3 2.7 -7.7 2.7 -8.1 3.05 -8.35 L3.75 -8.65 4.45 -8.3 8.05 -4.35" fill="#898e8f" fill-rule="evenodd" stroke="none"/>
      <path d="M-8.65 -8.65 L8.7 -8.65 8.7 8.7 -8.65 8.7 -8.65 -8.65" fill="#ffffff" fill-opacity="0.0" fill-rule="evenodd" stroke="none"/>
    </g>
  </defs>
</svg>
