<svg width="24" height="24" viewBox="0 0 24 24" fill="none" xmlns="http://www.w3.org/2000/svg">
   <path fill-rule="evenodd" clip-rule="evenodd"
      d="M18 14C20.2091 14 22 15.7909 22 18C22 20.2091 20.2091 22 18 22H10C7.79086 22 6 20.2091 6 18C6 15.7909 7.79086 14 10 14H18ZM9.5 2C11.9794 2 13.8882 3.83801 13.9953 6.28274L14 6.5V9H16C16.5468 9 17 9.45329 17 10V12C17 12.553 16.553 13 16 13C15.447 13 15 12.553 15 12V11H4V19C4.553 19 5 19.447 5 20C5 20.553 4.553 21 4 21H3C2.44989 21 2 20.5484 2 20V10C2 9.45319 2.45093 9 3 9H5V6.5C5 4.09577 6.7283 2.228 9.0622 2.0194L9.28274 2.00474L9.5 2ZM18 16H10C8.89543 16 8 16.8954 8 18C8 19.1046 8.89543 20 10 20H18C19.1046 20 20 19.1046 20 18C20 16.8954 19.1046 16 18 16ZM11 17C11.553 17 12 17.447 12 18C12 18.553 11.553 19 11 19C10.447 19 10 18.553 10 18C10 17.447 10.447 17 11 17ZM14 17C14.553 17 15 17.447 15 18C15 18.553 14.553 19 14 19C13.447 19 13 18.553 13 18C13 17.447 13.447 17 14 17ZM17 17C17.553 17 18 17.447 18 18C18 18.553 17.553 19 17 19C16.447 19 16 18.553 16 18C16 17.447 16.447 17 17 17ZM9.5 4C8.11019 4 7.08482 4.96979 7.00501 6.32821L7 6.5V9H12V6.5C12 5.1681 11.1093 4.1709 9.83952 4.01987L9.67179 4.00501L9.5 4Z"
      fill="#0A47F0" />
</svg>
