<svg width="32" height="32" viewBox="0 0 32 32" fill="none" xmlns="http://www.w3.org/2000/svg">
   <g id="b/ic_bill">
      <path id="color&#240;&#159;&#142;&#168;" fill-rule="evenodd" clip-rule="evenodd"
         d="M4.00008 23.9995C3.26275 23.9995 2.66675 23.4035 2.66675 22.6662V9.33284C2.66675 8.59685 3.26275 7.99951 4.00008 7.99951H28.0001C28.7374 7.99951 29.3334 8.59685 29.3334 9.33284V22.6662C29.3334 23.4035 28.7374 23.9995 28.0001 23.9995L25.3334 24H22.6667L4.00008 23.9995ZM23.2218 10.6674H8.77838C8.10647 12.2048 6.87148 13.4398 5.33412 14.1117V17.8884C6.87148 18.5603 8.10647 19.7953 8.77838 21.3327H23.2218C23.8939 19.7949 25.1294 18.5596 26.6674 17.8878V14.1123C25.1294 13.4405 23.8939 12.2052 23.2218 10.6674ZM16.0001 11.9995C18.2094 11.9995 20.0001 13.7915 20.0001 15.9995C20.0001 18.2088 18.2094 19.9995 16.0001 19.9995C13.7907 19.9995 12.0001 18.2088 12.0001 15.9995C12.0001 13.7915 13.7907 11.9995 16.0001 11.9995ZM16.0001 14.6662C15.2641 14.6662 14.6667 15.2635 14.6667 15.9995C14.6667 16.7355 15.2641 17.3328 16.0001 17.3328C16.7361 17.3328 17.3334 16.7355 17.3334 15.9995C17.3334 15.2635 16.7361 14.6662 16.0001 14.6662Z"
         fill="#0A47F0" />
   </g>
</svg>
