<svg width="32" height="32" viewBox="0 0 32 32" fill="none" xmlns="http://www.w3.org/2000/svg">
   <path fill-rule="evenodd" clip-rule="evenodd"
      d="M25.3335 2.66675C26.0699 2.66675 26.6668 3.2637 26.6668 4.00008V22.6667C26.6668 23.4031 26.0699 24.0001 25.3335 24.0001H22.6668V28.0001C22.6668 28.7365 22.0699 29.3334 21.3335 29.3334H10.6668C9.93045 29.3334 9.3335 28.7365 9.3335 28.0001V24.0001H6.66683C5.93045 24.0001 5.3335 23.4031 5.3335 22.6667V4.00008C5.3335 3.2637 5.93045 2.66675 6.66683 2.66675H25.3335ZM20.0002 24.0001H12.0002V26.6667H20.0002V24.0001ZM12.0002 16.0001C11.2638 16.0001 10.6668 16.597 10.6668 17.3334C10.6668 18.0698 11.2638 18.6667 12.0002 18.6667C12.7365 18.6667 13.3335 18.0698 13.3335 17.3334C13.3335 16.597 12.7365 16.0001 12.0002 16.0001ZM16.0002 16.0001C15.2638 16.0001 14.6668 16.597 14.6668 17.3334C14.6668 18.0698 15.2638 18.6667 16.0002 18.6667C16.7365 18.6667 17.3335 18.0698 17.3335 17.3334C17.3335 16.597 16.7365 16.0001 16.0002 16.0001ZM20.0002 16.0001C19.2638 16.0001 18.6668 16.597 18.6668 17.3334C18.6668 18.0698 19.2638 18.6667 20.0002 18.6667C20.7365 18.6667 21.3335 18.0698 21.3335 17.3334C21.3335 16.597 20.7365 16.0001 20.0002 16.0001ZM12.0002 12.0001C11.2638 12.0001 10.6668 12.597 10.6668 13.3334C10.6668 14.0698 11.2638 14.6667 12.0002 14.6667C12.7365 14.6667 13.3335 14.0698 13.3335 13.3334C13.3335 12.597 12.7365 12.0001 12.0002 12.0001ZM16.0002 12.0001C15.2638 12.0001 14.6668 12.597 14.6668 13.3334C14.6668 14.0698 15.2638 14.6667 16.0002 14.6667C16.7365 14.6667 17.3335 14.0698 17.3335 13.3334C17.3335 12.597 16.7365 12.0001 16.0002 12.0001ZM20.0002 12.0001C19.2638 12.0001 18.6668 12.597 18.6668 13.3334C18.6668 14.0698 19.2638 14.6667 20.0002 14.6667C20.7365 14.6667 21.3335 14.0698 21.3335 13.3334C21.3335 12.597 20.7365 12.0001 20.0002 12.0001ZM20.0002 8.00008H12.0002C11.2638 8.00008 10.6668 8.59703 10.6668 9.33341C10.6668 10.0698 11.2638 10.6667 12.0002 10.6667H20.0002C20.7365 10.6667 21.3335 10.0698 21.3335 9.33341C21.3335 8.59703 20.7365 8.00008 20.0002 8.00008Z"
      fill="#0030B3" />
</svg>
