<svg width="24" height="24" viewBox="7 7 26 26" xmlns="http://www.w3.org/2000/svg">
   <path fill-rule="evenodd" clip-rule="evenodd"
      d="M29.6968 10.3033C29.4269 10.0328 29.0296 9.93342 28.6642 10.0451L10.7388 15.5399C10.3166 15.6676 10.0221 16.0493 10.0057 16.4902C9.96068 16.9193 10.1872 17.3312 10.5736 17.523L18.5244 21.5099L22.5101 29.4629C22.6935 29.7982 23.047 30.0048 23.4291 30H23.5117C23.9342 29.9683 24.2944 29.6816 24.4203 29.277L29.9549 11.3362C30.0666 10.9706 29.9673 10.5733 29.6968 10.3033ZM25.2877 13.247L19.0923 19.4441L13.8055 16.8L25.2877 13.247ZM23.2226 26.1991L20.5585 20.9108L26.754 14.7136L23.2226 26.1991Z"
      fill="currentColor" />
</svg>
