<?xml version="1.0" encoding="UTF-8" standalone="no"?>
<svg xmlns:xlink="http://www.w3.org/1999/xlink" height="42.0px" width="123.1px" xmlns="http://www.w3.org/2000/svg">
  <g transform="matrix(1.0, 0.0, 0.0, 1.0, 61.55, 21.0)">
    <use height="42.0" transform="matrix(1.0, 0.0, 0.0, 1.0, -61.55, -21.0)" width="123.1" xlink:href="#shape0"/>
  </g>
  <defs>
    <g id="shape0" transform="matrix(1.0, 0.0, 0.0, 1.0, 61.55, 21.0)">
      <path d="M40.55 -21.0 Q49.25 -21.0 55.4 -14.85 61.55 -8.7 61.55 0.0 61.55 8.7 55.4 14.85 49.25 21.0 40.55 21.0 L-40.55 21.0 Q-49.25 21.0 -55.4 14.85 -61.55 8.7 -61.55 0.0 -61.55 -8.7 -55.4 -14.85 -49.25 -21.0 -40.55 -21.0 L40.55 -21.0" fill="#d2d6dc" fill-rule="evenodd" stroke="none"/>
      <path d="M40.55 -19.0 Q48.4 -19.0 54.0 -13.4 59.55 -7.85 59.55 0.0 59.55 7.85 54.0 13.45 48.4 19.0 40.55 19.0 L-40.55 19.0 Q-48.4 19.0 -53.95 13.45 -59.55 7.85 -59.55 0.0 -59.55 -7.85 -53.95 -13.4 -48.4 -19.0 -40.55 -19.0 L40.55 -19.0" fill="#ffffff" fill-rule="evenodd" stroke="none"/>
      <path d="M-21.1 -21.0 Q-12.4 -21.0 -6.25 -14.85 -0.1 -8.7 -0.1 0.0 -0.1 8.7 -6.25 14.85 -12.4 21.0 -21.1 21.0 L-40.55 21.0 Q-49.25 21.0 -55.4 14.85 -61.55 8.7 -61.55 0.0 -61.55 -8.7 -55.4 -14.85 -49.25 -21.0 -40.55 -21.0 L-21.1 -21.0" fill="#d2d6dc" fill-rule="evenodd" stroke="none"/>
      <path d="M32.6 4.2 Q32.6 3.25 32.0 2.7 L31.1 2.15 29.95 1.8 29.75 1.7 28.05 1.15 26.75 0.4 25.85 -0.55 Q25.35 -1.4 25.35 -2.85 25.35 -4.95 26.35 -5.95 27.4 -6.95 29.5 -7.15 L29.5 -8.4 29.7 -9.1 30.4 -9.3 30.5 -9.3 31.2 -9.1 31.4 -8.4 31.4 -7.2 34.15 -6.95 34.85 -6.65 35.05 -6.05 35.05 -5.75 35.0 -5.7 34.8 -5.0 34.2 -4.8 33.9 -4.8 31.6 -5.0 31.1 -4.95 30.6 -4.95 29.55 -4.8 28.65 -4.4 Q28.05 -4.0 28.05 -3.15 28.05 -2.0 28.75 -1.45 29.2 -1.1 30.35 -0.8 L30.85 -0.65 31.15 -0.55 32.75 -0.05 33.9 0.6 Q34.65 1.15 35.05 2.0 35.4 2.85 35.4 4.15 35.4 6.2 34.4 7.3 33.35 8.35 31.25 8.65 L31.25 9.9 Q31.25 10.45 31.05 10.6 30.9 10.8 30.35 10.8 L30.3 10.8 Q29.75 10.8 29.55 10.6 29.4 10.45 29.4 9.9 L29.4 8.7 26.4 8.45 25.65 8.2 Q25.5 8.0 25.5 7.55 L25.5 7.15 Q25.55 6.65 25.75 6.45 25.9 6.25 26.35 6.25 L26.65 6.25 29.65 6.45 31.45 6.2 32.3 5.5 32.6 4.2" fill="#d2d6dc" fill-rule="evenodd" stroke="none"/>
      <path d="M-33.15 4.2 Q-33.15 3.25 -33.75 2.75 L-34.65 2.2 -35.75 1.85 -36.0 1.75 -37.1 1.4 -38.05 1.0 -38.85 0.55 -40.0 -0.75 Q-40.35 -1.6 -40.35 -2.75 -40.35 -4.65 -39.45 -5.65 L-38.35 -6.45 Q-37.1 -7.05 -34.95 -7.05 L-31.65 -6.8 -31.0 -6.5 -30.8 -5.9 -30.8 -5.6 -30.8 -5.55 Q-30.85 -5.05 -31.05 -4.85 -31.2 -4.65 -31.6 -4.65 L-31.9 -4.65 -34.2 -4.85 -34.65 -4.85 -35.15 -4.8 -36.2 -4.65 -37.05 -4.3 Q-37.7 -3.85 -37.7 -3.05 -37.7 -1.9 -37.0 -1.4 L-35.45 -0.7 -34.9 -0.55 -34.6 -0.5 Q-32.85 0.0 -31.9 0.65 -31.15 1.2 -30.75 2.05 -30.4 2.85 -30.4 4.15 -30.4 6.6 -31.85 7.65 -33.3 8.65 -36.05 8.65 L-39.3 8.4 -40.0 8.15 -40.2 7.5 -40.2 7.15 -39.95 6.4 -39.35 6.2 -39.05 6.25 -36.1 6.4 -34.3 6.2 -33.45 5.5 -33.15 4.2 M-22.25 -7.4 L-21.7 -7.4 Q-21.05 -7.4 -21.05 -7.05 L-21.15 -6.65 -26.85 9.5 -27.25 10.1 -27.9 10.25 -28.5 10.25 Q-29.15 10.25 -29.15 9.9 L-29.05 9.5 -23.35 -6.65 -23.0 -7.3 -22.25 -7.4" fill="#ffffff" fill-rule="evenodd" stroke="none"/>
    </g>
  </defs>
</svg>
