<svg width="32" height="32" viewBox="0 0 32 32" fill="none" xmlns="http://www.w3.org/2000/svg">
	<path fill-rule="evenodd" clip-rule="evenodd"
		d="M14.7203 6.24013L15.2068 6.66667L17.7874 6.66779C22.3108 6.66779 25.8344 9.88086 26.5382 14.533L26.5414 14.532C26.6241 14.4813 26.6654 14.4147 26.6654 14.332V13.3333C26.6668 12.596 27.2641 12 28.0001 12C28.6841 12 29.2481 12.5133 29.3241 13.1773L29.3334 13.3333V14.6667C29.3334 16.072 28.2454 17.224 26.8654 17.3253L26.6668 17.3415C26.6199 18.589 26.4472 19.4048 26.0383 20.5911L25.8924 21.0017L25.5774 21.8399L25.504 22.1109L25.3321 22.8598L25.3334 26.6702C25.3334 27.3014 24.8949 27.8301 24.3058 27.9683L24.1556 27.9946L24.0001 28.0035H18.6668C17.983 28.0035 17.4194 27.4888 17.3424 26.8257L17.3334 26.6702L17.3321 25.3333H14.6654L14.6668 26.6702C14.6668 27.3014 14.2282 27.8301 13.6392 27.9683L13.4889 27.9946L13.3334 28.0035H8.0001C7.31632 28.0035 6.75276 27.4888 6.67574 26.8257L6.66677 26.6702V22.1332L6.62774 21.9539C6.57509 21.7251 6.522 21.5213 6.46267 21.3194L6.36826 21.0152L6.01077 20.0078L3.99984 20.0081C3.36865 20.0081 2.83991 19.5696 2.70172 18.9805L2.67547 18.8303L2.6665 18.6748V13.3446C2.6665 12.6608 3.18122 12.0972 3.84434 12.0202L3.99984 12.0007L6.42144 12L7.43479 10.8588L7.99877 10.1985L8.0001 5.34931C8.0001 4.7949 8.34081 4.31064 8.83657 4.11181L8.98977 4.06094L9.13742 4.03046L9.29245 4.01368C10.7806 3.89912 12.6854 4.49214 14.7203 6.24013ZM10.6654 6.88118L10.6668 10.6849C10.6668 10.997 10.5573 11.2991 10.3575 11.5388L9.43358 12.6242L9.09237 13.0155L8.01595 14.2316C7.7991 14.475 7.50204 14.629 7.18212 14.6681L7.02053 14.6779L5.3321 14.6772V17.3412L6.94821 17.3415C7.40052 17.3415 7.81349 17.5697 8.05688 17.934L8.13995 18.0768L8.2056 18.2312L8.90354 20.1885C8.98678 20.4438 9.05948 20.6904 9.12741 20.9511L9.22643 21.3556L9.30525 21.7153L9.33344 21.988L9.3321 25.3358H11.9988L12.0001 24.0051C12.0001 23.3739 12.4387 22.8451 13.0277 22.7069L13.1779 22.6807L13.3334 22.6717H18.6668C19.3506 22.6717 19.9141 23.1865 19.9911 23.8496L20.0001 24.0051L19.9988 25.3358H22.6654L22.6668 22.7178L22.6942 22.449L22.7691 22.0977L22.8657 21.6748L22.9647 21.2799C23.0104 21.1093 23.053 20.971 23.0981 20.8541C23.8945 18.7928 24 18.3122 24 16.2697C24 12.2475 21.4874 9.47539 18.0667 9.33333H14.6668C14.3102 9.33333 13.9684 9.2048 13.7179 8.95103C12.7579 7.97862 11.8366 7.35218 10.9765 6.99828L10.6654 6.88118ZM11.3334 14C12.0708 14 12.6668 14.5973 12.6668 15.3333C12.6668 16.0693 12.0708 16.6667 11.3334 16.6667C10.5974 16.6667 10.0001 16.0693 10.0001 15.3333C10.0001 14.5973 10.5974 14 11.3334 14Z"
		fill="#fff" />
</svg>
